<svg width="113" height="114" viewBox="0 0 113 114" fill="none" xmlns="http://www.w3.org/2000/svg">
<path d="M112.6 56.9154C112.6 87.9154 87.5 113.016 56.5 113.016C25.5 113.016 0.399902 87.9154 0.399902 56.9154C0.399902 25.9154 25.5 0.815315 56.5 0.815315C57.2 0.815315 57.9 0.815315 58.5 0.815315H112.6V56.2154C112.6 56.5154 112.6 56.7154 112.6 56.9154Z" fill="#FB5755"/>
<path d="M56.4999 97.8154C79.0884 97.8154 97.3998 79.5038 97.3998 56.9154C97.3998 34.3269 79.0884 16.0154 56.4999 16.0154C33.9115 16.0154 15.5999 34.3269 15.5999 56.9154C15.5999 79.5038 33.9115 97.8154 56.4999 97.8154Z" fill="#FFE600"/>
<path d="M56.5 82.3154C70.749 82.3154 82.2999 70.7643 82.2999 56.5154C82.2999 42.2664 70.749 30.7154 56.5 30.7154C42.251 30.7154 30.7 42.2664 30.7 56.5154C30.7 70.7643 42.251 82.3154 56.5 82.3154Z" fill="#6BC4E8"/>
</svg>
